Coordinates
version=1
nRows=5
nColumns=40
inDegrees=yes

Units are S.I. units (second, meters, Newtons, ...)
Angles are in degrees.

endheader
time	pelvis_tilt	pelvis_list	pelvis_rotation	pelvis_tx	pelvis_ty	pelvis_tz	hip_flexion_r	hip_adduction_r	hip_rotation_r	knee_angle_r	knee_angle_r_beta	ankle_angle_r	subtalar_angle_r	mtp_angle_r	hip_flexion_l	hip_adduction_l	hip_rotation_l	knee_angle_l	knee_angle_l_beta	ankle_angle_l	subtalar_angle_l	mtp_angle_l	lumbar_extension	lumbar_bending	lumbar_rotation	arm_flex_r	arm_add_r	arm_rot_r	elbow_flex_r	pro_sup_r	wrist_flex_r	wrist_dev_r	arm_flex_l	arm_add_l	arm_rot_l	elbow_flex_l	pro_sup_l	wrist_flex_l	wrist_dev_l
     22.56000000	     -4.75111735	     -3.87771170	     -2.50847487	      0.84899875	      0.93457120	      0.43890762	     35.97318805	     -4.70298993	     -6.88388974	     62.95687399	     62.95687399	      2.50960531	    -17.10794079	      5.17159814	     10.20110659	     -3.36481659	    -10.08202385	     15.79735734	     15.79735734	     11.95335366	    -11.66583253	     -3.05048606	     -9.61705638	      5.83698665	      2.32238745	      3.00300693	    -11.69584023	     -8.63157499	     28.95901041	     46.63512161	      0.00000000	      0.00000000	     15.12821639	    -14.93771064	     -5.73420500	     61.67211145	     47.01141621	      0.00000000	      0.00000000
     22.57200000	     -4.66460132	     -3.78255186	     -2.72833025	      0.84913386	      0.93451146	      0.43871226	     36.19278404	     -4.64333435	     -7.00811742	     60.01593901	     60.01593901	      2.38590531	    -16.72348461	      5.03929407	      9.19647895	     -3.18813544	    -10.43159063	     15.12625807	     15.12625807	     12.23254816	    -11.23674019	     -3.34250754	     -9.89079033	      5.71694773	      3.06612475	      1.42267994	    -11.78504683	     -8.46398429	     27.22169803	     46.68092851	      0.00000000	      0.00000000	     16.22420352	    -14.56016234	     -6.30242828	     64.20241155	     47.10436846	      0.00000000	      0.00000000
     22.58400000	     -4.77804690	     -3.77310559	     -2.76078528	      0.84919355	      0.93408549	      0.43840649	     36.33289002	     -4.59110340	     -7.43483812	     56.51168993	     56.51168993	      1.74407110	    -16.47070768	      3.39601487	      8.53560180	     -3.12714564	    -10.70194908	     14.61562686	     14.61562686	     12.30501930	    -10.77977631	     -4.21360289	     -9.90993584	      5.79658997	      2.27103868	      1.06425746	    -11.55131742	     -8.14198003	     24.71164343	     46.75853790	      0.00000000	      0.00000000	     15.80781866	    -14.93881010	     -7.80274643	     68.09045735	     47.28995500	      0.00000000	      0.00000000
     22.59600000	     -4.86721359	     -3.74667940	     -2.82155108	      0.84931369	      0.93358653	      0.43826883	     36.33081688	     -4.49163242	     -7.86134762	     52.77959395	     52.77959395	      1.78708608	    -15.81855976	      3.46477459	      7.84779796	     -3.02727255	    -10.81016205	     14.13247091	     14.13247091	     12.59665269	    -10.49407843	     -4.36831478	     -9.95747791	      5.81996449	      2.56643966	     -0.47876325	    -11.55181735	     -8.05761458	     23.81892205	     46.77680469	      0.00000000	      0.00000000	     16.86101180	    -14.78034583	     -8.17708815	     69.66029171	     47.35301395	      0.00000000	      0.00000000
     22.60800000	     -4.99300005	     -3.65013886	     -2.88487896	      0.84950942	      0.93291580	      0.43824010	     36.20367945	     -4.43004179	     -8.32850920	     48.71975097	     48.71975097	      1.69230413	    -14.98983145	      3.07618697	      7.20745738	     -2.88389177	    -11.07039982	     13.66394220	     13.66394220	     12.85708350	    -10.00637903	     -4.68212916	    -10.00177917	      5.72182805	      2.75967823	     -2.00193360	    -11.47189131	     -7.99034722	     23.11126692	     46.78932893	      0.00000000	      0.00000000	     17.61798821	    -14.69599596	     -8.66185758	     71.96253389	     47.43636127	      0.00000000	      0.00000000
